<svg xmlns="http://www.w3.org/2000/svg" version="1.1" xmlns:xlink="http://www.w3.org/1999/xlink" xmlns:svgjs="http://svgjs.dev/svgjs" width="1500" height="492" viewBox="0 0 1500 492"><g transform="matrix(1,0,0,1,-0.9090909090909918,-1.313674618457128)"><svg viewBox="0 0 396 130" data-background-color="#ffffff" preserveAspectRatio="xMidYMid meet" height="492" width="1500" xmlns="http://www.w3.org/2000/svg" xmlns:xlink="http://www.w3.org/1999/xlink"><g id="tight-bounds" transform="matrix(1,0,0,1,0.2400000000000091,0.3471091471533043)"><svg viewBox="0 0 395.52 129.3057817056934" height="129.3057817056934" width="395.52"><g><svg viewBox="0 0 395.52 129.3057817056934" height="129.3057817056934" width="395.52"><g transform="matrix(1,0,0,1,0,79.91616058480408)"><svg viewBox="0 0 395.52 49.3896211208893" height="49.3896211208893" width="395.52"><g id="textblocktransform"><svg viewBox="0 0 395.52 49.3896211208893" height="49.3896211208893" width="395.52" id="textblock"><g><svg viewBox="0 0 395.52 49.3896211208893" height="49.3896211208893" width="395.52"><g transform="matrix(1,0,0,1,0,0)"><svg width="395.52" viewBox="1.58 -31.1 269.85 33.7" height="49.3896211208893" data-palette-color="#264f0b"><path d="M16.43 1.6L16.43 1.6Q13 1.6 10.25 0.61 7.5-0.38 5.56-2.24 3.63-4.1 2.6-6.75 1.58-9.4 1.58-12.73L1.58-12.73Q1.58-16.45 2.66-19.55 3.75-22.65 5.86-24.91 7.98-27.18 11.03-28.4 14.08-29.63 18-29.63L18-29.63Q20-29.63 21.69-29.21 23.38-28.8 24.61-28.13 25.85-27.45 26.54-26.63 27.23-25.8 27.23-24.95L27.23-24.95Q27.23-23.93 26.68-23.43 26.13-22.93 25.33-22.93L25.33-22.93Q24.68-22.93 24.14-23.23 23.6-23.53 22.85-23.91 22.1-24.3 20.88-24.6 19.65-24.9 17.68-24.9L17.68-24.9Q16.03-24.9 14.43-24.2 12.83-23.5 11.55-22.11 10.28-20.73 9.51-18.69 8.75-16.65 8.75-13.98L8.75-13.98Q8.75-11.95 9.28-10.1 9.8-8.25 10.89-6.81 11.98-5.38 13.65-4.55 15.33-3.73 17.63-3.73L17.63-3.73Q19.38-3.73 20.63-4.19 21.88-4.65 22.78-5.28 23.68-5.9 24.4-6.36 25.13-6.83 25.8-6.83L25.8-6.83Q27.13-6.83 27.63-6.21 28.13-5.6 28.13-4.5L28.13-4.5Q28.13-3.38 27.28-2.29 26.43-1.2 24.86-0.33 23.3 0.55 21.15 1.07 19 1.6 16.43 1.6ZM48.02 2.6L48.02 2.6Q44.42 2.6 41.44 1.49 38.45 0.38 36.26-1.73 34.07-3.83 32.88-6.78 31.7-9.73 31.7-13.4L31.7-13.4Q31.7-16.85 32.77-19.53 33.85-22.2 35.72-24.15 37.6-26.1 39.98-27.35 42.37-28.6 45.02-29.21 47.67-29.83 50.27-29.83L50.27-29.83Q54.1-29.83 57.32-28.7 60.55-27.58 62.95-25.49 65.35-23.4 66.67-20.49 68-17.57 68-13.98L68-13.98Q68-10 66.5-6.91 65-3.83 62.27-1.7 59.55 0.43 55.91 1.51 52.27 2.6 48.02 2.6ZM49.2-3.95L49.2-3.95Q53.57-3.95 56.2-5.35 58.82-6.75 60-9.08 61.17-11.4 61.17-14.18L61.17-14.18Q61.17-16.73 60.34-18.73 59.5-20.73 58-22.1 56.5-23.48 54.52-24.19 52.55-24.9 50.27-24.9L50.27-24.9Q48.05-24.9 46.02-24.23 44-23.55 42.42-22.3 40.85-21.05 39.94-19.28 39.02-17.5 39.02-15.3L39.02-15.3Q39.02-12.68 39.78-10.59 40.55-8.5 41.91-7.01 43.27-5.53 45.13-4.74 47-3.95 49.2-3.95ZM84.1 0.68L84.1 0.68Q82.92 0.68 81.81-0.2 80.7-1.07 79.68-2.41 78.67-3.75 77.82-5.18L77.82-5.18Q77.07-6.35 76.16-8.14 75.25-9.93 74.3-12.06 73.35-14.2 72.47-16.41 71.6-18.63 70.9-20.66 70.2-22.7 69.78-24.31 69.37-25.93 69.37-26.8L69.37-26.8Q69.37-28.3 70.38-29.09 71.4-29.88 72.95-29.88L72.95-29.88Q74.3-29.88 75.27-29.24 76.25-28.6 76.72-27.1L76.72-27.1Q77.22-25.35 77.86-23.15 78.5-20.95 79.18-18.69 79.87-16.43 80.55-14.38 81.22-12.33 81.77-10.9L81.77-10.9Q82.57-8.9 83.2-7.73 83.82-6.55 84.3-6.55L84.3-6.55Q84.82-6.55 85.68-7.66 86.55-8.78 87.6-10.68L87.6-10.68Q88.42-12.05 89.33-13.86 90.25-15.68 91.2-17.73 92.15-19.78 93.05-21.88 93.95-23.98 94.7-25.93L94.7-25.93Q95.22-27.28 95.87-27.98 96.52-28.68 97.33-28.95 98.15-29.23 99.1-29.23L99.1-29.23Q100.05-29.23 100.77-28.84 101.5-28.45 101.91-27.81 102.32-27.18 102.32-26.35L102.32-26.35Q102.32-25.48 101.76-23.9 101.2-22.33 100.26-20.33 99.32-18.32 98.13-16.15 96.95-13.98 95.68-11.86 94.42-9.75 93.23-7.96 92.05-6.18 91.1-4.95L91.1-4.95Q89.95-3.5 88.76-2.21 87.57-0.93 86.4-0.13 85.22 0.68 84.1 0.68ZM115.87 1.55L115.87 1.55Q112.69 1.55 110.52 0.4 108.34-0.75 107.16-3.08 105.97-5.4 105.59-8.95L105.59-8.95Q105.49-9.8 105.44-10.71 105.39-11.63 105.36-12.61 105.32-13.6 105.32-14.65 105.32-15.7 105.32-16.8L105.32-16.8Q105.32-21.08 106.14-23.86 106.97-26.65 108.73-28.23 110.49-29.8 113.26-30.45 116.02-31.1 119.84-31.1L119.84-31.1Q121.72-31.1 123.43-30.94 125.14-30.78 126.47-30.45 127.79-30.13 128.56-29.64 129.32-29.15 129.32-28.48L129.32-28.48Q129.32-27.78 128.91-27.36 128.49-26.95 127.84-26.83L127.84-26.83Q127.07-26.73 125.79-26.79 124.52-26.85 122.99-26.93 121.47-27 119.89-27L119.89-27Q117.64-27 116.12-26.66 114.59-26.33 113.67-25.55 112.74-24.78 112.34-23.45 111.94-22.13 111.94-20.18L111.94-20.18Q111.94-19.18 112.21-18.66 112.47-18.15 113.44-17.99 114.42-17.82 116.57-17.82L116.57-17.82Q117.09-17.82 117.87-17.84 118.64-17.85 119.48-17.88 120.32-17.9 121.06-17.9 121.79-17.9 122.22-17.9L122.22-17.9Q124.09-17.9 124.82-17.43 125.54-16.95 125.54-16.03L125.54-16.03Q125.54-14.7 124.68-14.21 123.82-13.73 122.39-13.73L122.39-13.73Q121.77-13.73 121.02-13.73 120.27-13.73 119.46-13.71 118.64-13.7 117.89-13.7 117.14-13.7 116.54-13.7L116.54-13.7Q114.32-13.7 113.24-13.56 112.17-13.43 111.86-12.96 111.54-12.5 111.54-11.5L111.54-11.5Q111.54-9.85 111.69-8.54 111.84-7.23 112.22-6.26 112.59-5.3 113.28-4.67 113.97-4.05 115.04-3.74 116.12-3.43 117.64-3.43L117.64-3.43Q119.54-3.43 121.37-3.55 123.19-3.68 124.67-3.79 126.14-3.9 126.97-3.9L126.97-3.9Q128.09-3.9 128.62-3.44 129.14-2.98 129.14-2.08L129.14-2.08Q129.14-1.07 127.91-0.38 126.67 0.33 124.68 0.75 122.69 1.18 120.37 1.36 118.04 1.55 115.87 1.55ZM146.94 1.15L146.94 1.15Q145.57 1.15 144.87 0.24 144.17-0.68 144.02-2.7L144.02-2.7Q143.99-3.53 143.98-4.91 143.97-6.3 143.99-8.04 144.02-9.78 144.05-11.66 144.09-13.55 144.13-15.39 144.17-17.23 144.18-18.81 144.19-20.4 144.19-21.53L144.19-21.53Q144.19-23.03 143.78-23.53 143.37-24.03 141.92-24.03L141.92-24.03Q140.37-24.03 138.8-23.79 137.24-23.55 135.72-23.55L135.72-23.55Q134.97-23.55 134.37-23.83 133.77-24.1 133.43-24.64 133.09-25.18 133.09-25.95L133.09-25.95Q133.09-26.85 134-27.53 134.92-28.2 136.54-28.66 138.17-29.13 140.37-29.41 142.57-29.7 145.17-29.83 147.77-29.95 150.57-29.95L150.57-29.95Q152.39-29.95 154.15-29.88 155.92-29.8 157.48-29.6 159.04-29.4 160.23-29 161.42-28.6 162.09-27.96 162.77-27.33 162.77-26.38L162.77-26.38Q162.77-25.5 162.4-24.93 162.04-24.35 161.37-24.06 160.69-23.78 159.69-23.78L159.69-23.78Q158.39-23.78 157.47-23.86 156.54-23.95 155.29-23.95L155.29-23.95Q153.44-23.95 152.59-23.66 151.74-23.38 151.52-22.56 151.29-21.75 151.24-20.13L151.24-20.13Q151.22-19.05 151.15-17.82 151.09-16.6 151.02-15.25 150.94-13.9 150.83-12.51 150.72-11.13 150.6-9.76 150.49-8.4 150.38-7.11 150.27-5.83 150.14-4.7 150.02-3.58 149.92-2.65L149.92-2.65Q149.62-1.23 149.28-0.39 148.94 0.45 148.4 0.8 147.87 1.15 146.94 1.15ZM187.13 0.83L187.13 0.83Q183.88 0.13 182.7-2.45 181.51-5.03 181.51-9.3L181.51-9.3Q181.51-10.53 181.57-12.11 181.63-13.7 181.76-15.43 181.88-17.15 182.03-18.8 182.19-20.45 182.34-21.83 182.49-23.2 182.61-24.05L182.61-24.05Q183.11-27.38 184.09-28.88 185.06-30.38 186.74-30.38L186.74-30.38Q187.81-30.38 188.34-29.91 188.86-29.45 189.03-28.6 189.21-27.75 189.21-26.58L189.21-26.58Q189.21-25.8 189.16-24.76 189.11-23.73 189.06-22.55 189.01-21.38 188.96-20.09 188.91-18.8 188.86-17.53 188.81-16.25 188.8-15.04 188.78-13.83 188.81-12.75L188.81-12.75Q188.86-10.63 189.07-9.2 189.28-7.78 189.91-6.96 190.53-6.15 191.75-5.79 192.96-5.43 195.01-5.4L195.01-5.4Q196.78-5.33 198.37-5.26 199.96-5.2 200.99-5.13L200.99-5.13Q202.49-5.23 203.44-5.21 204.38-5.2 204.86-5.03L204.86-5.03Q205.26-4.83 205.45-4.46 205.63-4.1 205.63-3.45L205.63-3.45Q205.63-2.4 204.99-1.68 204.34-0.95 203.17-0.45 202.01 0.05 200.49 0.43L200.49 0.43Q198.88 0.8 196.78 1.03 194.69 1.25 192.61 1.25L192.61 1.25Q191.78 1.25 190.77 1.21 189.76 1.18 188.8 1.07 187.84 0.98 187.13 0.83ZM222.56 0.93L222.56 0.93Q217.28 0.93 214.07-1.88 210.86-4.67 209.43-9.28L209.43-9.28Q209.16-10.23 208.94-11.25 208.73-12.28 208.58-13.35 208.43-14.43 208.33-15.56 208.23-16.7 208.18-17.88 208.13-19.05 208.13-20.28L208.13-20.28Q208.13-23.68 208.53-25.71 208.93-27.75 209.82-28.64 210.71-29.53 212.13-29.53L212.13-29.53Q213.13-29.53 213.76-28.76 214.38-28 214.68-26.09 214.98-24.18 214.98-20.7L214.98-20.7Q214.98-19.68 215.01-18.66 215.03-17.65 215.11-16.69 215.18-15.73 215.28-14.8 215.38-13.88 215.55-13.03 215.71-12.18 215.91-11.43L215.91-11.43Q216.66-8.75 218.23-7.13 219.81-5.5 222.61-5.5L222.61-5.5Q224.36-5.5 225.67-6.25 226.98-7 227.91-8.33 228.83-9.65 229.43-11.38L229.43-11.38Q229.76-12.38 230-13.49 230.23-14.6 230.38-15.79 230.53-16.98 230.61-18.23 230.68-19.48 230.68-20.73L230.68-20.73Q230.68-23.98 231.03-25.83 231.38-27.68 232.13-28.45 232.88-29.23 234.06-29.23L234.06-29.23Q235.31-29.23 235.97-28.3 236.63-27.38 236.87-25.35 237.11-23.33 237.11-19.98L237.11-19.98Q237.11-18.8 237.05-17.64 236.98-16.48 236.87-15.36 236.76-14.25 236.57-13.19 236.38-12.13 236.13-11.11 235.88-10.1 235.56-9.13L235.56-9.13Q234.56-6.1 232.77-3.84 230.98-1.58 228.43-0.33 225.88 0.93 222.56 0.93ZM243.21 0.65L243.21 0.65Q242.31 0.65 241.63 0.33 240.96 0 240.57-0.61 240.18-1.23 240.18-2.08L240.18-2.08Q240.18-2.95 240.49-3.61 240.81-4.28 241.35-4.88L241.35-4.88Q241.81-5.38 242.73-6.36 243.66-7.35 244.82-8.54 245.98-9.73 247.14-10.89 248.31-12.05 249.23-12.9L249.23-12.9Q250.43-13.83 251.12-14.51 251.81-15.2 251.81-15.6L251.81-15.6Q251.81-16 251.43-16.53 251.06-17.05 249.96-17.8L249.96-17.8Q249.16-18.43 248.1-19.29 247.06-20.15 245.96-21.05 244.85-21.95 243.88-22.76 242.91-23.58 242.21-24.1L242.21-24.1Q241.53-24.6 241.14-25.31 240.75-26.03 240.75-26.85L240.75-26.85Q240.75-27.93 241.22-28.58 241.68-29.23 242.38-29.51 243.08-29.8 243.78-29.8L243.78-29.8Q244.83-29.8 245.63-29.41 246.43-29.03 247.23-28.25L247.23-28.25Q248.16-27.43 249.28-26.26 250.41-25.1 251.58-23.78 252.75-22.45 253.85-21.1L253.85-21.1Q254.63-20.08 255.17-19.51 255.71-18.95 256.15-18.95L256.15-18.95Q256.53-18.95 256.92-19.3 257.31-19.65 257.78-20.25L257.78-20.25Q258.33-20.9 259.04-21.86 259.75-22.83 260.54-23.9 261.33-24.98 262.07-25.99 262.81-27 263.38-27.78L263.38-27.78Q264.31-29 265.2-29.53 266.11-30.05 267.11-30.05L267.11-30.05Q268.61-30.05 269.2-29.35 269.81-28.65 269.81-27.6L269.81-27.6Q269.81-26.93 269.45-26.11 269.11-25.3 268.33-24.38L268.33-24.38Q267.61-23.4 266.57-22.16 265.53-20.93 264.43-19.74 263.33-18.55 262.36-17.65L262.36-17.65Q261.31-16.8 260.83-16.3 260.36-15.8 260.36-15.53L260.36-15.53Q260.36-15.23 260.72-14.86 261.08-14.5 261.73-13.95L261.73-13.95Q263.98-12 265.68-10.24 267.38-8.47 268.63-6.95 269.88-5.43 270.75-4.15L270.75-4.15Q271.13-3.68 271.28-3.13 271.43-2.58 271.43-2.13L271.43-2.13Q271.43-1.4 270.98-0.84 270.53-0.28 269.84 0.05 269.15 0.38 268.4 0.38L268.4 0.38Q267.45 0.38 266.77 0.05 266.08-0.28 265.5-0.88L265.5-0.88Q264.88-1.58 263.98-2.76 263.08-3.95 262.09-5.26 261.11-6.58 260.22-7.75 259.33-8.93 258.7-9.63L258.7-9.63Q257.88-10.68 257.32-11.15 256.75-11.63 256.33-11.63L256.33-11.63Q255.91-11.63 255.32-11.08 254.73-10.53 253.81-9.33L253.81-9.33Q252.58-7.83 251.63-6.69 250.68-5.55 249.85-4.58 249.03-3.6 248.13-2.59 247.23-1.58 246.06-0.3L246.06-0.3Q245.58 0.1 244.91 0.38 244.23 0.65 243.21 0.65Z" opacity="1" transform="matrix(1,0,0,1,0,0)" fill="#264f0b" class="wordmark-text-0" data-fill-palette-color="primary" id="text-0"></path></svg></g></svg></g></svg></g></svg></g><g transform="matrix(1,0,0,1,163.6317718054655,0)"><svg viewBox="0 0 68.25645638906902 68.25645638906902" height="68.25645638906902" width="68.25645638906902"><g><svg xmlns="http://www.w3.org/2000/svg" xmlns:xlink="http://www.w3.org/1999/xlink" version="1.1" x="0" y="0" viewBox="7.261 6.964 75.477 75.477" enable-background="new 0 0 90 90" xml:space="preserve" height="68.25645638906902" width="68.25645638906902" class="icon-icon-0" data-fill-palette-color="accent" id="icon-0"><g fill="#fc6c22" data-fill-palette-color="accent"><polygon points="43.583,37.298 32.386,9.106 29.752,10.152 41.15,38.849 43.583,41.282  " fill="#fc6c22" data-fill-palette-color="accent"></polygon><polygon points="46.418,52.112 57.613,80.299 60.247,79.252 48.85,50.556 46.418,48.125  " fill="#fc6c22" data-fill-palette-color="accent"></polygon><polygon points="37.596,46.119 9.403,57.317 10.45,59.951 39.146,48.554 41.58,46.119  " fill="#fc6c22" data-fill-palette-color="accent"></polygon><polygon points="52.409,43.286 80.598,32.09 79.551,29.455 50.855,40.853 48.422,43.286  " fill="#fc6c22" data-fill-palette-color="accent"></polygon><polygon points="38.762,40.468 10.91,28.452 9.788,31.053 38.139,43.286 41.579,43.286  " fill="#fc6c22" data-fill-palette-color="accent"></polygon><polygon points="51.239,48.938 79.089,60.954 80.212,58.352 51.861,46.12 48.421,46.12  " fill="#fc6c22" data-fill-palette-color="accent"></polygon><polygon points="49.236,38.463 61.252,10.613 58.649,9.49 46.418,37.841 46.418,41.281  " fill="#fc6c22" data-fill-palette-color="accent"></polygon><polygon points="40.765,50.943 28.75,78.793 31.352,79.916 43.583,51.565 43.583,48.125  " fill="#fc6c22" data-fill-palette-color="accent"></polygon><polygon points="48.85,50.556 70.683,72.39 72.687,70.386 51.239,48.938 47.579,47.359  " fill="#fc6c22" data-fill-palette-color="accent"></polygon><polygon points="41.15,38.849 19.316,17.015 17.313,19.019 38.762,40.468 42.42,42.046  " fill="#fc6c22" data-fill-palette-color="accent"></polygon><polygon points="43.583,42.548 42.42,42.046 42.913,43.286 43.583,43.286  " fill="#fc6c22" data-fill-palette-color="accent"></polygon><polygon points="46.418,46.857 47.579,47.359 47.087,46.119 46.418,46.119  " fill="#fc6c22" data-fill-palette-color="accent"></polygon><polygon points="50.855,40.853 72.688,19.02 70.684,17.016 49.236,38.463 47.657,42.123  " fill="#fc6c22" data-fill-palette-color="accent"></polygon><polygon points="39.146,48.554 17.313,70.387 19.317,72.391 40.765,50.943 42.344,47.283  " fill="#fc6c22" data-fill-palette-color="accent"></polygon><polygon points="47.155,43.286 47.657,42.123 46.418,42.615 46.418,43.286  " fill="#fc6c22" data-fill-palette-color="accent"></polygon><polygon points="42.846,46.119 42.344,47.283 43.583,46.791 43.583,46.119  " fill="#fc6c22" data-fill-palette-color="accent"></polygon><polygon points="82.738,43.286 52.409,43.286 48.704,44.757 51.861,46.12 82.738,46.12  " fill="#fc6c22" data-fill-palette-color="accent"></polygon><polygon points="38.139,43.286 7.261,43.286 7.261,46.119 37.596,46.119 41.298,44.649  " fill="#fc6c22" data-fill-palette-color="accent"></polygon><polygon points="42.475,44.182 41.298,44.649 42.522,45.177 42.997,44.703  " fill="#fc6c22" data-fill-palette-color="accent"></polygon><polygon points="47.005,44.704 47.526,45.225 48.704,44.757 47.479,44.229  " fill="#fc6c22" data-fill-palette-color="accent"></polygon><polygon points="42.913,43.286 41.579,43.286 42.475,44.182 43.16,43.909  " fill="#fc6c22" data-fill-palette-color="accent"></polygon><polygon points="47.087,46.119 48.421,46.12 47.526,45.225 46.84,45.498  " fill="#fc6c22" data-fill-palette-color="accent"></polygon><polygon points="43.583,43.741 43.16,43.909 43.339,44.36 43.583,44.116  " fill="#fc6c22" data-fill-palette-color="accent"></polygon><polygon points="46.418,45.666 46.84,45.498 46.661,45.047 46.418,45.29  " fill="#fc6c22" data-fill-palette-color="accent"></polygon><polygon points="42.522,45.177 41.58,46.119 42.846,46.119 43.138,45.443  " fill="#fc6c22" data-fill-palette-color="accent"></polygon><polygon points="47.479,44.229 48.422,43.286 47.155,43.286 46.863,43.963  " fill="#fc6c22" data-fill-palette-color="accent"></polygon><polygon points="43.318,45.025 43.138,45.443 43.583,45.635 43.583,45.29  " fill="#fc6c22" data-fill-palette-color="accent"></polygon><polygon points="46.683,44.382 46.863,43.963 46.418,43.771 46.418,44.117  " fill="#fc6c22" data-fill-palette-color="accent"></polygon><polygon points="46.534,44.727 46.661,45.047 47.005,44.704 46.683,44.382  " fill="#fc6c22" data-fill-palette-color="accent"></polygon><polygon points="43.339,44.36 42.997,44.703 43.318,45.025 43.467,44.681  " fill="#fc6c22" data-fill-palette-color="accent"></polygon><polygon points="46.418,44.996 46.534,44.727 46.418,44.435  " fill="#fc6c22" data-fill-palette-color="accent"></polygon><polygon points="43.467,44.681 43.583,44.976 43.583,44.41  " fill="#fc6c22" data-fill-palette-color="accent"></polygon><polygon points="46.418,37.841 46.418,6.964 43.583,6.964 43.583,37.298 45.054,41.001  " fill="#fc6c22" data-fill-palette-color="accent"></polygon><polygon points="43.583,51.565 43.583,82.441 46.418,82.441 46.418,52.112 44.946,48.407  " fill="#fc6c22" data-fill-palette-color="accent"></polygon><polygon points="45.521,42.178 45.054,41.001 44.526,42.225 45,42.699  " fill="#fc6c22" data-fill-palette-color="accent"></polygon><polygon points="44.479,47.229 44.946,48.407 45.475,47.182 45.001,46.707  " fill="#fc6c22" data-fill-palette-color="accent"></polygon><polygon points="44.526,42.225 43.583,41.282 43.583,42.548 44.261,42.841  " fill="#fc6c22" data-fill-palette-color="accent"></polygon><polygon points="45.475,47.182 46.418,48.125 46.418,46.857 45.741,46.565  " fill="#fc6c22" data-fill-palette-color="accent"></polygon><polygon points="45.323,46.386 45.741,46.565 45.933,46.119 45.589,46.119  " fill="#fc6c22" data-fill-palette-color="accent"></polygon><polygon points="44.679,43.021 44.261,42.841 44.069,43.286 44.414,43.286  " fill="#fc6c22" data-fill-palette-color="accent"></polygon><polygon points="43.583,46.791 43.583,48.125 44.479,47.229 44.207,46.544  " fill="#fc6c22" data-fill-palette-color="accent"></polygon><polygon points="46.418,42.615 46.418,41.281 45.521,42.178 45.794,42.863  " fill="#fc6c22" data-fill-palette-color="accent"></polygon><polygon points="44.038,46.119 44.207,46.544 44.658,46.364 44.413,46.119  " fill="#fc6c22" data-fill-palette-color="accent"></polygon><polygon points="45.962,43.286 45.794,42.863 45.343,43.042 45.587,43.286  " fill="#fc6c22" data-fill-palette-color="accent"></polygon><polygon points="44.658,46.364 45.001,46.707 45.323,46.386 44.979,46.237  " fill="#fc6c22" data-fill-palette-color="accent"></polygon><polygon points="45.343,43.042 45,42.699 44.679,43.021 45.023,43.169  " fill="#fc6c22" data-fill-palette-color="accent"></polygon><polygon points="44.979,46.237 45.274,46.119 44.707,46.119  " fill="#fc6c22" data-fill-palette-color="accent"></polygon><polygon points="45.023,43.169 44.729,43.286 45.293,43.286  " fill="#fc6c22" data-fill-palette-color="accent"></polygon><polygon points="44.069,43.286 43.583,43.286 43.583,43.741 43.932,43.603  " fill="#fc6c22" data-fill-palette-color="accent"></polygon><polygon points="45.933,46.119 46.418,46.119 46.418,45.666 46.069,45.804  " fill="#fc6c22" data-fill-palette-color="accent"></polygon><polygon points="46.069,45.804 46.194,45.514 45.796,45.913  " fill="#fc6c22" data-fill-palette-color="accent"></polygon><polygon points="43.932,43.603 43.807,43.893 44.205,43.494  " fill="#fc6c22" data-fill-palette-color="accent"></polygon><polygon points="43.583,45.635 43.583,46.119 44.038,46.119 43.899,45.771  " fill="#fc6c22" data-fill-palette-color="accent"></polygon><polygon points="46.418,43.771 46.418,43.286 45.962,43.286 46.1,43.634  " fill="#fc6c22" data-fill-palette-color="accent"></polygon><polygon points="43.899,45.771 44.19,45.896 43.791,45.497  " fill="#fc6c22" data-fill-palette-color="accent"></polygon><polygon points="46.1,43.634 45.81,43.509 46.209,43.908  " fill="#fc6c22" data-fill-palette-color="accent"></polygon><polygon points="46.418,45.29 46.418,44.996 46.194,45.514  " fill="#fc6c22" data-fill-palette-color="accent"></polygon><polygon points="43.583,44.116 43.583,44.41 43.807,43.893  " fill="#fc6c22" data-fill-palette-color="accent"></polygon><polygon points="45.587,43.286 45.293,43.286 45.81,43.509  " fill="#fc6c22" data-fill-palette-color="accent"></polygon><polygon points="44.413,46.119 44.707,46.119 44.19,45.896  " fill="#fc6c22" data-fill-palette-color="accent"></polygon><polygon points="45.589,46.119 45.796,45.913 45.274,46.119  " fill="#fc6c22" data-fill-palette-color="accent"></polygon><polygon points="44.414,43.286 44.205,43.494 44.729,43.286  " fill="#fc6c22" data-fill-palette-color="accent"></polygon><polygon points="43.583,45.29 43.791,45.497 43.583,44.976  " fill="#fc6c22" data-fill-palette-color="accent"></polygon><polygon points="46.418,44.117 46.209,43.908 46.418,44.435  " fill="#fc6c22" data-fill-palette-color="accent"></polygon></g></svg></g></svg></g><g></g></svg></g><defs></defs></svg><rect width="395.52" height="129.3057817056934" fill="none" stroke="none" visibility="hidden"></rect></g></svg></g></svg>